<?xml version="1.0" standalone="no"?>
<!DOCTYPE svg PUBLIC "-//W3C//DTD SVG 20010904//EN"
 "http://www.w3.org/TR/2001/REC-SVG-20010904/DTD/svg10.dtd">
<svg version="1.0" xmlns="http://www.w3.org/2000/svg"
 width="256.000000pt" height="256.000000pt" viewBox="0 0 256.000000 256.000000"
 preserveAspectRatio="xMidYMid meet">

<g transform="translate(0.000000,256.000000) scale(0.100000,-0.100000)"
fill="#000000" stroke="none">
<path d="M1123 2425 c-100 -31 -222 -133 -275 -232 -47 -85 -58 -157 -58 -373
0 -213 2 -220 55 -220 52 0 55 9 55 190 0 91 5 194 10 229 20 120 93 221 202
278 47 24 64 28 143 28 76 0 98 -4 146 -26 106 -50 174 -132 204 -246 12 -43
15 -104 14 -241 -2 -197 2 -212 51 -212 56 0 60 17 60 236 0 134 -5 215 -14
249 -42 159 -164 289 -317 336 -72 22 -212 25 -276 4z"/>
<path d="M515 1833 c-60 -7 -73 -13 -84 -40 -14 -37 -40 -250 -101 -823 -56
-537 -59 -584 -30 -639 24 -48 83 -98 130 -111 21 -6 349 -10 841 -10 l805 0
55 28 c68 34 110 91 116 159 3 26 -21 282 -51 568 -68 632 -91 807 -108 835
-18 29 -44 33 -183 34 l-120 1 0 -117 c0 -115 0 -117 -29 -147 -54 -56 -139
-50 -177 13 -16 26 -17 44 -12 143 l6 113 -306 0 -307 0 0 -120 c0 -117 -1
-120 -28 -151 -32 -36 -100 -49 -142 -27 -47 25 -59 68 -53 189 l6 109 -99 -1
c-54 -1 -112 -4 -129 -6z m545 -505 c52 -27 94 -83 111 -148 35 -134 -67 -280
-196 -280 -56 0 -122 37 -159 88 -25 36 -31 55 -34 112 -7 115 43 203 134 235
56 20 94 18 144 -7z m553 11 c149 -41 198 -260 85 -376 l-32 -33 -104 0 c-57
0 -112 5 -123 10 -10 6 -32 34 -49 63 -53 92 -37 218 36 291 53 53 110 67 187
45z m-907 -503 c71 -72 70 -67 58 -210 l-7 -77 -35 48 c-40 55 -107 193 -117
241 -7 32 6 62 27 62 5 0 38 -29 74 -64z m1199 50 c19 -14 19 -15 1 -72 -21
-69 -74 -175 -109 -222 l-25 -33 -6 53 c-3 29 -6 80 -7 113 l-2 60 56 58 c31
31 60 57 65 57 4 0 17 -6 27 -14z m-215 -407 c-18 -15 -59 -41 -90 -58 l-58
-31 -6 87 c-4 49 -9 111 -12 140 l-5 52 93 44 93 43 9 -125 9 -125 -33 -27z
m-691 100 c-2 -46 -4 -108 -4 -137 0 -28 -4 -52 -8 -52 -15 0 -92 43 -140 78
-45 33 -48 37 -43 71 3 20 8 75 12 122 l6 87 91 -43 90 -42 -4 -84z m179 56
c35 -4 65 -12 68 -19 2 -6 0 -72 -4 -146 l-7 -134 -46 2 c-25 2 -68 9 -95 16
-46 11 -49 15 -52 47 -2 19 -1 84 3 145 l7 112 31 -8 c18 -5 60 -12 95 -15z
m305 -57 c4 -46 7 -111 7 -145 l0 -62 -37 -11 c-21 -6 -66 -13 -100 -17 l-63
-6 0 146 0 146 38 6 c20 4 55 10 77 15 75 15 71 18 78 -72z"/>
<path d="M970 1202 c-39 -39 -47 -90 -24 -139 49 -100 164 -63 164 52 0 98
-79 147 -140 87z"/>
<path d="M1468 1201 c-30 -26 -33 -35 -33 -84 0 -60 19 -91 64 -109 53 -20
111 33 111 102 0 57 -48 120 -92 120 -10 0 -32 -13 -50 -29z"/>
</g>
</svg>
