<?xml version="1.0" standalone="no"?>
<!DOCTYPE svg PUBLIC "-//W3C//DTD SVG 20010904//EN"
 "http://www.w3.org/TR/2001/REC-SVG-20010904/DTD/svg10.dtd">
<svg version="1.0" xmlns="http://www.w3.org/2000/svg"
 width="512.000000pt" height="512.000000pt" viewBox="0 0 512.000000 512.000000"
 preserveAspectRatio="xMidYMid meet">

<g transform="translate(0.000000,512.000000) scale(0.100000,-0.100000)"
fill="#000000" stroke="none">
<path d="M2490 4479 c-90 -11 -180 -58 -254 -133 -122 -123 -146 -200 -146
-477 0 -166 2 -200 16 -213 18 -18 47 -20 75 -6 18 10 19 23 19 178 0 265 23
347 120 442 78 76 127 95 240 95 87 0 100 -3 155 -32 74 -38 138 -105 173
-181 26 -55 27 -63 30 -271 1 -139 6 -219 13 -228 16 -19 63 -16 82 5 15 16
17 46 17 218 0 225 -10 284 -63 373 -66 110 -209 213 -316 226 -25 3 -57 7
-71 9 -14 1 -54 -1 -90 -5z"/>
<path d="M3656 4313 l-40 -46 -62 6 c-86 8 -97 -6 -55 -71 17 -27 31 -53 31
-59 0 -5 -14 -29 -31 -52 -17 -24 -29 -52 -27 -64 3 -24 11 -24 98 -12 43 6
47 5 85 -34 61 -63 85 -54 85 34 0 51 12 65 74 89 56 22 61 49 15 74 -62 33
-80 55 -86 102 -7 53 -19 80 -36 80 -7 -1 -30 -21 -51 -47z"/>
<path d="M779 4153 c-6 -16 -22 -57 -36 -93 -13 -35 -49 -112 -79 -170 -30
-58 -57 -120 -60 -137 -6 -32 -5 -34 51 -58 31 -14 148 -50 259 -80 233 -64
243 -67 317 -112 31 -18 63 -33 71 -33 15 0 37 43 81 156 29 75 87 177 129
227 l32 37 -39 40 c-68 70 -167 110 -425 175 -58 14 -140 37 -183 51 -98 30
-105 30 -118 -3z m241 -93 c79 -13 228 -55 293 -82 49 -21 53 -29 48 -91 -1
-15 7 -44 18 -63 l21 -34 -36 -73 -36 -72 -43 0 c-28 0 -50 -7 -64 -19 -31
-28 -53 -27 -161 5 -52 15 -142 40 -199 56 l-103 28 -2 54 c-1 41 -6 57 -22
70 -21 17 -21 18 -5 62 10 24 29 65 44 90 24 41 32 47 69 52 22 3 48 12 56 21
9 8 25 13 36 11 12 -3 50 -9 86 -15z"/>
<path d="M1090 3995 c-7 -8 -23 -15 -36 -15 -31 0 -64 -37 -64 -71 0 -19 11
-37 38 -61 44 -38 57 -65 41 -84 -21 -25 -32 -15 -25 21 7 37 -8 49 -19 15 -8
-26 -32 -25 -54 2 -11 13 -24 19 -34 15 -25 -9 -21 -40 8 -67 14 -13 23 -30
21 -37 -3 -7 4 -18 15 -24 16 -8 25 -7 38 5 10 9 32 16 49 16 36 0 62 30 62
73 0 19 -14 43 -46 77 -44 47 -50 70 -18 70 8 0 14 -7 14 -16 0 -8 5 -12 11
-9 5 4 19 -1 30 -11 18 -17 20 -17 33 2 14 19 8 46 -15 59 -7 5 -6 11 1 20 9
10 7 16 -9 24 -25 14 -26 14 -41 -4z"/>
<path d="M4105 4076 c-61 -26 -81 -97 -51 -171 16 -39 22 -39 -77 4 -27 12
-55 21 -63 21 -28 0 -96 -189 -76 -212 7 -9 -3 -46 -34 -128 -25 -63 -44 -125
-42 -138 3 -21 35 -39 238 -132 129 -60 245 -109 256 -110 18 0 32 22 82 133
41 91 64 131 74 129 20 -3 34 14 74 98 49 102 47 112 -26 141 l-59 23 48 23
c53 26 72 53 74 106 1 39 -20 70 -65 93 -43 22 -82 17 -137 -20 l-51 -35 0 32
c-1 50 -34 111 -72 135 -41 25 -52 26 -93 8z m81 -77 c20 -22 24 -104 7 -148
-9 -24 -11 -22 -51 37 -43 62 -52 98 -30 120 18 18 53 14 74 -9z m264 -109
c16 -16 18 -25 10 -40 -20 -37 -51 -50 -125 -50 l-70 0 57 55 c62 61 94 69
128 35z m-365 -94 c32 -15 60 -28 62 -30 9 -8 -38 -96 -51 -96 -10 0 -179 65
-193 75 -2 1 5 27 13 57 l16 57 47 -19 c25 -10 73 -30 106 -44z m265 -108 c52
-21 96 -40 97 -42 7 -7 -37 -96 -47 -96 -9 0 -73 24 -218 81 l-22 9 25 50 c30
59 18 59 165 -2z m-280 -89 c0 -4 -22 -50 -48 -103 l-48 -96 -72 35 c-40 19
-72 36 -72 38 0 7 22 72 47 138 l25 66 84 -35 c46 -19 84 -38 84 -43z m177
-61 c46 -16 85 -33 87 -36 4 -8 -79 -201 -92 -214 -5 -5 -52 11 -106 36 -112
52 -109 39 -44 174 32 65 44 82 57 77 9 -4 53 -20 98 -37z"/>
<path d="M1763 3865 c-19 -8 -34 -23 -38 -37 -19 -85 -145 -1260 -145 -1353 1
-104 48 -174 142 -209 39 -15 125 -16 858 -14 l815 3 48 28 c59 35 96 89 103
153 8 70 -124 1309 -148 1382 -15 50 -53 62 -199 62 l-122 0 6 -114 c7 -112 6
-115 -18 -144 -54 -65 -145 -65 -185 0 -17 28 -18 45 -13 145 l6 113 -306 0
-307 0 0 -115 c0 -127 -9 -154 -61 -181 -53 -27 -114 -12 -146 35 -15 22 -17
45 -15 144 l3 117 -123 0 c-83 -1 -134 -5 -155 -15z m590 -491 c83 -42 121
-108 122 -209 0 -59 -4 -77 -28 -118 -86 -145 -269 -138 -348 15 -24 46 -25
143 -3 196 43 104 168 161 257 116z m575 0 c83 -34 131 -110 132 -207 0 -68
-19 -120 -62 -164 l-32 -33 -107 0 -107 0 -35 39 c-45 50 -60 98 -55 176 9
150 139 242 266 189z m-921 -496 c70 -69 71 -75 57 -217 -6 -51 -9 -59 -21
-49 -26 21 -93 144 -122 224 -27 74 -28 81 -13 91 27 19 34 16 99 -49z m1203
46 c11 -12 10 -25 -5 -72 -21 -67 -73 -173 -108 -220 l-25 -33 -6 53 c-3 29
-6 80 -7 113 l-2 60 56 58 c59 60 76 67 97 41z m-191 -321 l1 -61 -47 -35
c-27 -19 -67 -44 -90 -55 l-41 -21 -6 97 c-4 53 -8 117 -11 142 l-4 45 92 40
92 40 6 -65 c4 -36 7 -93 8 -127z m-746 117 c28 -9 36 -16 33 -28 -3 -10 -7
-72 -8 -139 -2 -68 -7 -123 -12 -123 -19 0 -132 70 -157 97 -26 27 -27 30 -19
113 5 47 9 100 9 118 l1 32 58 -28 c31 -16 74 -35 95 -42z m220 -45 l57 -6 0
-38 c0 -21 -3 -86 -7 -146 l-6 -108 -66 6 c-36 3 -81 11 -98 17 -32 12 -33 13
-33 73 0 34 3 98 6 143 l7 81 41 -8 c22 -4 67 -11 99 -14z m291 -52 c3 -42 6
-107 6 -144 l0 -68 -37 -10 c-21 -6 -66 -14 -100 -17 l-63 -7 0 146 0 146 38
6 c20 3 53 10 72 15 77 18 76 18 84 -67z"/>
<path d="M2270 3243 c-82 -74 -16 -225 82 -191 37 13 58 55 58 113 0 38 -5 52
-29 76 -37 37 -72 37 -111 2z"/>
<path d="M2783 3258 c-24 -12 -53 -64 -53 -97 0 -68 63 -131 113 -112 75 29
90 138 27 201 -22 22 -52 25 -87 8z"/>
<path d="M810 3513 c-76 -8 -200 -36 -303 -70 l-109 -35 5 -36 c2 -20 30 -106
61 -190 31 -84 61 -175 67 -203 15 -68 30 -74 116 -39 96 39 198 59 335 66 97
5 124 3 193 -16 121 -34 134 -35 141 -15 4 10 -2 56 -14 104 -31 128 -49 211
-57 258 -6 35 -15 48 -59 81 -116 88 -211 112 -376 95z m186 -70 c77 -16 84
-20 94 -48 23 -63 36 -80 70 -91 33 -11 36 -16 57 -93 l21 -81 -21 11 c-18 10
-25 7 -50 -21 -17 -20 -27 -39 -24 -51 4 -16 1 -17 -27 -11 -66 15 -239 6
-323 -16 -94 -25 -123 -27 -123 -9 0 33 -109 95 -110 64 -1 -23 -29 40 -45
101 l-16 63 30 28 c20 19 33 42 37 69 6 38 10 42 53 56 146 49 245 56 377 29z"/>
<path d="M807 3410 c4 -13 0 -20 -9 -20 -23 0 -58 -39 -58 -65 0 -34 31 -62
82 -75 74 -19 98 -31 98 -52 0 -27 -28 -34 -45 -12 -13 18 -14 18 -15 2 0 -22
-20 -23 -46 -3 -28 21 -44 18 -44 -9 0 -20 9 -28 48 -42 26 -10 53 -24 60 -31
20 -19 34 -16 27 7 -5 15 -2 20 13 20 27 0 52 32 52 67 0 42 -37 72 -112 92
-41 11 -63 22 -63 31 0 22 35 25 36 3 0 -15 2 -14 11 5 13 26 18 27 44 7 26
-20 44 -19 44 3 0 20 -34 55 -62 65 -10 4 -18 11 -18 17 0 5 -11 10 -24 10
-19 0 -23 -4 -19 -20z"/>
<path d="M4480 3230 l-65 -29 -8 -63 -9 -64 -62 -1 c-149 -1 -270 -131 -253
-274 7 -58 26 -96 68 -138 50 -51 86 -65 164 -66 80 0 128 19 181 72 56 56 68
89 69 180 0 69 3 83 16 83 8 0 39 7 67 15 55 17 64 31 78 131 l6 40 -90 72
c-49 40 -91 72 -93 72 -2 0 -33 -14 -69 -30z m53 -68 c-4 -18 -8 -20 -20 -10
-13 10 -13 14 3 25 22 16 25 13 17 -15z m72 -52 c-5 -15 -10 -19 -17 -12 -5 5
-7 20 -3 32 5 15 10 19 17 12 5 -5 7 -20 3 -32z m-40 -84 l40 -35 -39 -1 c-25
0 -52 8 -73 23 -32 22 -39 40 -27 71 7 18 23 9 99 -58z m98 44 c-3 -11 -10
-23 -16 -27 -5 -3 -8 -2 -5 3 3 5 8 17 11 27 9 24 16 22 10 -3z m-235 -99
c135 -95 63 -311 -104 -311 -108 0 -196 112 -169 217 10 40 48 87 87 107 48
24 143 18 186 -13z"/>
<path d="M3874 3150 c-31 -12 -64 -59 -64 -91 0 -15 12 -41 26 -58 54 -65 159
-26 159 58 0 64 -65 113 -121 91z"/>
<path d="M955 2864 c-66 -16 -107 -46 -88 -65 8 -8 29 -5 78 10 87 27 209 28
284 2 30 -11 61 -17 68 -14 25 10 9 37 -32 57 -53 26 -224 32 -310 10z"/>
<path d="M667 2004 c-32 -10 -66 -33 -102 -67 -62 -60 -80 -110 -72 -198 10
-114 68 -179 229 -260 147 -73 198 -126 198 -206 0 -95 -83 -143 -193 -112
-57 15 -104 64 -147 149 -25 49 -46 79 -59 83 -37 9 -44 -15 -39 -134 5 -130
4 -128 113 -162 52 -16 95 -22 170 -22 94 0 105 2 168 33 99 49 147 128 147
241 -1 109 -64 197 -185 258 -198 100 -245 141 -245 213 0 80 66 129 156 115
58 -8 108 -52 143 -124 33 -69 56 -84 80 -54 15 18 17 35 13 105 -2 45 -9 88
-14 95 -39 49 -264 78 -361 47z"/>
<path d="M2390 2004 c-190 -51 -320 -239 -320 -464 0 -243 145 -424 369 -461
135 -23 267 18 367 113 107 101 147 201 147 363 0 117 -17 184 -68 265 -30 48
-113 124 -163 149 -98 50 -226 63 -332 35z m199 -83 c106 -55 181 -216 181
-393 0 -224 -99 -378 -245 -378 -44 0 -127 42 -160 81 -160 189 -131 598 50
697 33 19 131 14 174 -7z"/>
<path d="M3762 2013 c-17 -7 -42 -57 -42 -83 0 -12 16 -36 35 -53 38 -33 39
-49 4 -99 -27 -37 -24 -48 15 -48 110 0 172 225 76 275 -29 15 -63 18 -88 8z"/>
<path d="M1160 1981 c0 -10 16 -31 35 -45 l35 -27 0 -364 0 -363 -37 -29 c-25
-21 -34 -35 -30 -46 6 -15 27 -17 166 -17 132 0 160 3 165 15 3 8 0 19 -7 25
-7 5 -25 20 -42 34 l-30 24 -3 166 -3 166 180 0 181 0 0 -166 0 -166 -36 -34
c-24 -21 -34 -38 -31 -49 6 -13 28 -15 164 -13 149 3 158 4 161 23 2 13 -7 26
-28 37 -17 9 -35 29 -41 45 -6 17 -9 148 -7 366 l3 339 38 32 c20 17 37 39 37
49 0 16 -13 17 -162 15 -154 -3 -163 -4 -165 -23 -2 -13 8 -27 30 -40 l32 -20
3 -153 3 -152 -181 0 -180 0 0 123 c0 138 11 193 40 202 29 9 50 33 44 50 -5
12 -35 15 -170 15 -154 0 -164 -1 -164 -19z"/>
<path d="M3011 1987 c-10 -12 -9 -18 4 -29 9 -7 28 -23 41 -35 l24 -22 0 -360
0 -359 -40 -32 c-68 -54 -52 -61 134 -58 155 3 161 4 164 24 2 16 -5 25 -28
34 -17 7 -35 21 -40 31 -6 10 -10 69 -10 131 l0 113 108 0 c87 0 115 4 153 21
219 101 224 427 7 525 -50 23 -66 24 -279 27 -189 3 -227 1 -238 -11z m395
-86 c53 -24 80 -60 95 -125 24 -108 -13 -224 -81 -258 -34 -18 -113 -24 -144
-12 -14 5 -16 33 -16 203 0 109 3 201 7 204 13 14 99 6 139 -12z"/>
<path d="M3947 1993 c-15 -14 -6 -33 22 -47 16 -9 34 -29 40 -47 14 -42 15
-664 1 -705 -6 -16 -24 -37 -41 -46 -19 -12 -29 -24 -27 -35 3 -16 21 -18 192
-21 219 -3 275 5 372 53 151 74 234 218 234 405 0 226 -128 396 -328 439 -56
12 -454 16 -465 4z m404 -89 c76 -23 141 -90 167 -176 69 -221 7 -453 -141
-529 -29 -16 -54 -19 -110 -17 l-72 3 -3 355 c-1 195 0 361 3 367 6 18 90 16
156 -3z"/>
</g>
</svg>
